<svg width="17" height="15" viewBox="0 0 17 15" fill="none" xmlns="http://www.w3.org/2000/svg">
<path d="M15.5 6.26514C15.776 6.26514 16.0117 6.36279 16.207 6.55811C16.4023 6.75342 16.5 6.9891 16.5 7.26514C16.5 7.54118 16.4023 7.77686 16.207 7.97217C16.0117 8.16748 15.776 8.26514 15.5 8.26514H15.3828L14.4844 13.437C14.4427 13.6766 14.3281 13.8745 14.1406 14.0308C13.9531 14.187 13.7396 14.2651 13.5 14.2651H3.5C3.26042 14.2651 3.04688 14.187 2.85938 14.0308C2.67188 13.8745 2.55729 13.6766 2.51562 13.437L1.61719 8.26514H1.5C1.22396 8.26514 0.988281 8.16748 0.792969 7.97217C0.597656 7.77686 0.5 7.54118 0.5 7.26514C0.5 6.9891 0.597656 6.75342 0.792969 6.55811C0.988281 6.36279 1.22396 6.26514 1.5 6.26514H15.5ZM4.28906 12.5151C4.42448 12.5047 4.53776 12.4461 4.62891 12.3394C4.72005 12.2326 4.76042 12.1115 4.75 11.9761L4.5 8.72607C4.48958 8.59066 4.43099 8.47738 4.32422 8.38623C4.21745 8.29508 4.09635 8.25472 3.96094 8.26514C3.82552 8.27555 3.71224 8.33415 3.62109 8.44092C3.52995 8.54769 3.48958 8.66878 3.5 8.8042L3.75 12.0542C3.76042 12.1844 3.8138 12.2938 3.91016 12.3823C4.00651 12.4709 4.11979 12.5151 4.25 12.5151H4.28906ZM7.5 12.0151V8.76514C7.5 8.62972 7.45052 8.51253 7.35156 8.41357C7.2526 8.31462 7.13542 8.26514 7 8.26514C6.86458 8.26514 6.7474 8.31462 6.64844 8.41357C6.54948 8.51253 6.5 8.62972 6.5 8.76514V12.0151C6.5 12.1506 6.54948 12.2677 6.64844 12.3667C6.7474 12.4657 6.86458 12.5151 7 12.5151C7.13542 12.5151 7.2526 12.4657 7.35156 12.3667C7.45052 12.2677 7.5 12.1506 7.5 12.0151ZM10.5 12.0151V8.76514C10.5 8.62972 10.4505 8.51253 10.3516 8.41357C10.2526 8.31462 10.1354 8.26514 10 8.26514C9.86458 8.26514 9.7474 8.31462 9.64844 8.41357C9.54948 8.51253 9.5 8.62972 9.5 8.76514V12.0151C9.5 12.1506 9.54948 12.2677 9.64844 12.3667C9.7474 12.4657 9.86458 12.5151 10 12.5151C10.1354 12.5151 10.2526 12.4657 10.3516 12.3667C10.4505 12.2677 10.5 12.1506 10.5 12.0151ZM13.25 12.0542L13.5 8.8042C13.5104 8.66878 13.4701 8.54769 13.3789 8.44092C13.2878 8.33415 13.1745 8.27555 13.0391 8.26514C12.9036 8.25472 12.7826 8.29508 12.6758 8.38623C12.569 8.47738 12.5104 8.59066 12.5 8.72607L12.25 11.9761C12.2396 12.1115 12.2799 12.2326 12.3711 12.3394C12.4622 12.4461 12.5755 12.5047 12.7109 12.5151H12.75C12.8802 12.5151 12.9935 12.4709 13.0898 12.3823C13.1862 12.2938 13.2396 12.1844 13.25 12.0542ZM4.21875 2.54639L3.49219 5.76514H2.46094L3.25 2.31982C3.34896 1.86149 3.58073 1.48779 3.94531 1.19873C4.3099 0.909668 4.72656 0.765137 5.19531 0.765137H6.5C6.5 0.62972 6.54948 0.512532 6.64844 0.413574C6.7474 0.314616 6.86458 0.265137 7 0.265137H10C10.1354 0.265137 10.2526 0.314616 10.3516 0.413574C10.4505 0.512532 10.5 0.62972 10.5 0.765137H11.8047C12.2734 0.765137 12.6901 0.909668 13.0547 1.19873C13.4193 1.48779 13.651 1.86149 13.75 2.31982L14.5391 5.76514H13.5078L12.7812 2.54639C12.724 2.31722 12.6055 2.12972 12.4258 1.98389C12.2461 1.83805 12.0391 1.76514 11.8047 1.76514H10.5C10.5 1.90055 10.4505 2.01774 10.3516 2.1167C10.2526 2.21566 10.1354 2.26514 10 2.26514H7C6.86458 2.26514 6.7474 2.21566 6.64844 2.1167C6.54948 2.01774 6.5 1.90055 6.5 1.76514H5.19531C4.96094 1.76514 4.75391 1.83805 4.57422 1.98389C4.39453 2.12972 4.27604 2.31722 4.21875 2.54639Z" fill="white"/>
</svg>