<svg xmlns="http://www.w3.org/2000/svg" xmlns:xlink="http://www.w3.org/1999/xlink" zoomAndPan="magnify" preserveAspectRatio="xMidYMid meet" version="1.0" viewBox="8.6 112.25 358.16 159.97"><defs><g/><clipPath id="a705b9aeff"><path d="M 0.160156 42 L 60 42 L 60 102 L 0.160156 102 Z M 0.160156 42 " clip-rule="nonzero"/></clipPath><clipPath id="00dbb1e65f"><rect x="0" width="234" y="0" height="136"/></clipPath><clipPath id="c62b461681"><rect x="0" width="159" y="0" height="242"/></clipPath><clipPath id="cc2502df0f"><path d="M 293.125 172.617188 L 367 172.617188 L 367 243 L 293.125 243 Z M 293.125 172.617188 " clip-rule="nonzero"/></clipPath></defs><g transform="matrix(1, 0, 0, 1, 8, 119)"><g clip-path="url(#00dbb1e65f)"><g clip-path="url(#a705b9aeff)"><g fill="#0d1b2a" fill-opacity="1"><g transform="translate(0.596933, 101.574153)"><g><path d="M 30.4375 -58.71875 C 34.457031 -58.71875 38.859375 -58.25 43.640625 -57.3125 C 48.421875 -56.375 52.867188 -54.878906 56.984375 -52.828125 L 53.625 -46.125 C 51.125 -48.257812 48.351562 -50.15625 45.3125 -51.8125 C 42.269531 -53.46875 39.050781 -54.742188 35.65625 -55.640625 C 30.03125 -57.160156 25.070312 -57.203125 20.78125 -55.765625 C 16.488281 -54.335938 13.25 -51.835938 11.0625 -48.265625 C 8.875 -44.691406 8.003906 -40.398438 8.453125 -35.390625 C 8.890625 -31.015625 10.269531 -26.75 12.59375 -22.59375 C 14.925781 -18.4375 17.945312 -14.945312 21.65625 -12.125 C 25.363281 -9.3125 29.492188 -7.59375 34.046875 -6.96875 C 36.734375 -6.613281 39.4375 -6.816406 42.15625 -7.578125 C 44.882812 -8.335938 47.457031 -9.695312 49.875 -11.65625 C 53.539062 -14.789062 55.863281 -18.726562 56.84375 -23.46875 L 58.71875 -23.46875 C 57.820312 -19 55.941406 -15 53.078125 -11.46875 C 50.222656 -7.9375 46.738281 -5.140625 42.625 -3.078125 C 38.519531 -1.023438 34.097656 0 29.359375 0 C 24.171875 0 19.34375 -1.25 14.875 -3.75 C 10.5 -6.34375 6.925781 -9.894531 4.15625 -14.40625 C 1.382812 -18.925781 0 -23.910156 0 -29.359375 C 0 -35.078125 1.359375 -40.148438 4.078125 -44.578125 C 6.804688 -49.003906 10.472656 -52.46875 15.078125 -54.96875 C 19.679688 -57.46875 24.800781 -58.71875 30.4375 -58.71875 Z M 30.4375 -58.71875 "/></g></g></g></g><g fill="#0d1b2a" fill-opacity="1"><g transform="translate(60.647292, 101.574153)"><g><path d="M 29.359375 -58.71875 C 34.804688 -58.71875 39.742188 -57.398438 44.171875 -54.765625 C 48.597656 -52.128906 52.128906 -48.597656 54.765625 -44.171875 C 57.398438 -39.742188 58.71875 -34.804688 58.71875 -29.359375 C 58.71875 -23.992188 57.398438 -19.078125 54.765625 -14.609375 C 52.128906 -10.140625 48.597656 -6.585938 44.171875 -3.953125 C 39.742188 -1.316406 34.804688 0 29.359375 0 C 23.992188 0 19.078125 -1.316406 14.609375 -3.953125 C 10.140625 -6.585938 6.585938 -10.140625 3.953125 -14.609375 C 1.316406 -19.078125 0 -23.992188 0 -29.359375 C 0 -34.804688 1.316406 -39.742188 3.953125 -44.171875 C 6.585938 -48.597656 10.140625 -52.128906 14.609375 -54.765625 C 19.078125 -57.398438 23.992188 -58.71875 29.359375 -58.71875 Z M 44.90625 -6.296875 C 47.59375 -8.171875 49.359375 -10.894531 50.203125 -14.46875 C 51.054688 -18.050781 50.96875 -22.007812 49.9375 -26.34375 C 48.90625 -30.675781 46.960938 -34.988281 44.109375 -39.28125 C 41.242188 -43.570312 37.976562 -47.007812 34.3125 -49.59375 C 30.65625 -52.1875 27.015625 -53.773438 23.390625 -54.359375 C 19.773438 -54.941406 16.582031 -54.296875 13.8125 -52.421875 C 11.125 -50.628906 9.351562 -47.945312 8.5 -44.375 C 7.65625 -40.800781 7.75 -36.820312 8.78125 -32.4375 C 9.8125 -28.0625 11.753906 -23.726562 14.609375 -19.4375 C 17.472656 -15.238281 20.734375 -11.820312 24.390625 -9.1875 C 28.054688 -6.550781 31.722656 -4.960938 35.390625 -4.421875 C 39.054688 -3.890625 42.226562 -4.515625 44.90625 -6.296875 Z M 44.90625 -6.296875 "/></g></g></g><g fill="#0d1b2a" fill-opacity="1"><g transform="translate(120.697651, 101.574153)"><g><path d="M 49.609375 -46.125 C 46.472656 -50.320312 42.710938 -52.929688 38.328125 -53.953125 C 33.953125 -54.984375 29.398438 -54.515625 24.671875 -52.546875 C 22.523438 -51.660156 20.46875 -50.722656 18.5 -49.734375 C 16.53125 -48.753906 14.695312 -47.816406 13 -46.921875 L 13 -14.75 C 13 -10.8125 13.222656 -7.367188 13.671875 -4.421875 C 14.117188 -1.472656 14.34375 0 14.34375 0 L 0 0 C 0 0 0.222656 -1.472656 0.671875 -4.421875 C 1.117188 -7.367188 1.34375 -10.8125 1.34375 -14.75 L 1.34375 -43.84375 C 1.34375 -47.863281 1.117188 -51.347656 0.671875 -54.296875 C 0.222656 -57.242188 0 -58.71875 0 -58.71875 L 13 -58.71875 L 13 -48.9375 C 14.695312 -49.832031 16.773438 -50.859375 19.234375 -52.015625 C 21.691406 -53.179688 24.257812 -54.300781 26.9375 -55.375 C 29.625 -56.445312 32.238281 -57.316406 34.78125 -57.984375 C 37.332031 -58.648438 39.546875 -58.894531 41.421875 -58.71875 C 43.296875 -58.539062 45.0625 -58.046875 46.71875 -57.234375 C 48.375 -56.429688 50.453125 -54.960938 52.953125 -52.828125 Z M 49.609375 -46.125 "/></g></g></g><g fill="#0d1b2a" fill-opacity="1"><g transform="translate(173.107536, 101.574153)"><g><path d="M 56.984375 -23.46875 L 58.71875 -23.46875 C 57.820312 -19 55.941406 -15 53.078125 -11.46875 C 50.222656 -7.9375 46.738281 -5.140625 42.625 -3.078125 C 38.519531 -1.023438 34.097656 0 29.359375 0 C 23.992188 0 19.097656 -1.316406 14.671875 -3.953125 C 10.253906 -6.585938 6.703125 -10.117188 4.015625 -14.546875 C 1.335938 -18.972656 0 -23.910156 0 -29.359375 C 0 -34.804688 1.316406 -39.742188 3.953125 -44.171875 C 6.585938 -48.597656 10.140625 -52.128906 14.609375 -54.765625 C 19.078125 -57.398438 23.992188 -58.71875 29.359375 -58.71875 C 33.023438 -58.71875 36.46875 -58.09375 39.6875 -56.84375 C 42.90625 -55.59375 45.765625 -53.894531 48.265625 -51.75 C 50.316406 -50.050781 52.054688 -48.015625 53.484375 -45.640625 C 54.921875 -43.273438 55.726562 -40.753906 55.90625 -38.078125 C 56.351562 -33.785156 55.546875 -30.296875 53.484375 -27.609375 C 51.429688 -24.929688 48.660156 -23.097656 45.171875 -22.109375 C 41.691406 -21.128906 38.070312 -20.953125 34.3125 -21.578125 C 29.9375 -22.296875 25.828125 -24.039062 21.984375 -26.8125 C 18.140625 -29.582031 14.878906 -32.800781 12.203125 -36.46875 C 11.398438 -37.625 10.679688 -38.804688 10.046875 -40.015625 C 9.421875 -41.222656 8.890625 -42.5 8.453125 -43.84375 C 7.640625 -40.351562 7.769531 -36.460938 8.84375 -32.171875 C 9.914062 -27.878906 11.835938 -23.632812 14.609375 -19.4375 C 16.578125 -16.488281 19.015625 -13.960938 21.921875 -11.859375 C 24.828125 -9.765625 27.953125 -8.3125 31.296875 -7.5 C 34.648438 -6.695312 37.984375 -6.65625 41.296875 -7.375 C 45.140625 -8.175781 48.535156 -10.097656 51.484375 -13.140625 C 54.429688 -16.179688 56.265625 -19.625 56.984375 -23.46875 Z M 13.8125 -52.421875 C 12.019531 -51.171875 10.546875 -49.382812 9.390625 -47.0625 C 10.367188 -43.21875 11.929688 -39.929688 14.078125 -37.203125 C 16.222656 -34.472656 18.816406 -32.257812 21.859375 -30.5625 C 25.878906 -28.332031 29.472656 -27.171875 32.640625 -27.078125 C 35.816406 -26.992188 38.410156 -27.707031 40.421875 -29.21875 C 42.429688 -30.738281 43.75 -32.707031 44.375 -35.125 C 45 -37.539062 44.773438 -40.132812 43.703125 -42.90625 C 42.628906 -45.675781 40.53125 -48.265625 37.40625 -50.671875 C 34.90625 -52.640625 32.203125 -53.957031 29.296875 -54.625 C 26.390625 -55.300781 23.570312 -55.4375 20.84375 -55.03125 C 18.125 -54.625 15.78125 -53.753906 13.8125 -52.421875 Z M 13.8125 -52.421875 "/></g></g></g></g></g><g transform="matrix(1, 0, 0, 1, 207, 51)"><g clip-path="url(#c62b461681)"><g fill="#d00000" fill-opacity="1"><g transform="translate(2.295903, 221.223747)"><g><path d="M 145.765625 -159.96875 C 146.828125 -159.96875 147.554688 -159.632812 147.953125 -158.96875 C 148.359375 -158.300781 148.296875 -157.632812 147.765625 -156.96875 L 92.578125 -79.984375 C 98.441406 -71.847656 104.335938 -63.644531 110.265625 -55.375 C 116.203125 -47.113281 122.101562 -38.851562 127.96875 -30.59375 L 90.78125 -30.59375 L 74.1875 -53.984375 L 35.984375 -0.59375 C 35.859375 -0.46875 35.59375 -0.335938 35.1875 -0.203125 C 34.789062 -0.0664062 34.457031 0 34.1875 0 L 2.203125 0 C 1.265625 0 0.628906 -0.332031 0.296875 -1 C -0.0351562 -1.664062 0.0625 -2.332031 0.59375 -3 L 55.390625 -79.984375 C 49.523438 -88.109375 43.660156 -96.300781 37.796875 -104.5625 C 31.929688 -112.832031 26.0625 -121.101562 20.1875 -129.375 L 57.390625 -129.375 L 74.1875 -105.96875 L 111.96875 -159.359375 C 112.101562 -159.628906 112.40625 -159.796875 112.875 -159.859375 C 113.34375 -159.929688 113.640625 -159.96875 113.765625 -159.96875 Z M 145.765625 -159.96875 "/></g></g></g></g></g><g clip-path="url(#cc2502df0f)"><path fill="#0d1b2a" d="M 343.40625 172.660156 C 341.832031 172.679688 339.597656 172.957031 336.527344 173.507812 C 334.851562 173.808594 334.441406 173.957031 333.996094 174.402344 C 333.492188 174.914062 333.464844 175.03125 333.410156 177.121094 C 333.351562 179.261719 333.359375 179.304688 333.828125 179.613281 C 334.09375 179.785156 334.972656 180.507812 335.785156 181.21875 C 337.679688 182.882812 338.011719 182.902344 339.914062 181.453125 C 340.742188 180.824219 340.785156 180.601562 340.078125 180.589844 C 339.726562 180.582031 338.539062 180.042969 338.84375 180.027344 C 338.910156 180.023438 339.636719 180.246094 340.457031 180.523438 C 342.996094 181.152344 343.984375 178.496094 345.996094 177.542969 C 350.132812 178.449219 348.585938 184.066406 351.878906 188.859375 C 353.753906 192.363281 355.351562 192.8125 359.605469 191.039062 C 359.863281 190.933594 359.933594 190.953125 359.839844 191.105469 C 359.628906 191.445312 356.726562 192.292969 355.773438 192.292969 C 354.574219 192.292969 353.769531 191.90625 352.96875 190.9375 L 352.277344 190.109375 C 348.652344 189.558594 346.261719 191.175781 345.210938 192.925781 C 345.023438 193.148438 341.054688 195.878906 340.6875 197.199219 C 340.484375 193.867188 344.367188 192.960938 344.117188 192.925781 C 340.753906 193.539062 332.40625 193.199219 330.28125 196.355469 C 328.175781 192.988281 330.5 189.570312 330.882812 188.253906 C 331.359375 186.648438 331.066406 184.917969 330.210938 183.523438 C 330.097656 183.054688 329.738281 182.648438 329.386719 182.3125 C 328.804688 181.753906 328.050781 181.386719 327.523438 180.78125 C 326.964844 180.136719 326.625 179.230469 325.738281 178.929688 C 324.222656 178.417969 322.605469 178.894531 321.179688 179.441406 C 320.34375 179.761719 319.476562 179.984375 318.570312 180.042969 C 317.804688 180.09375 316.265625 179.25 316.273438 180.015625 C 316.28125 180.476562 317.882812 179.703125 317.4375 179.96875 C 317.019531 180.222656 316.585938 180.355469 316.054688 180.429688 C 315.136719 180.558594 314.222656 180.667969 313.289062 180.695312 C 313.085938 180.703125 312.75 180.578125 313.167969 180.726562 C 313.828125 180.957031 314.363281 181.351562 315.058594 181.605469 C 315.742188 181.859375 314.621094 181.988281 314.371094 182.007812 C 312.925781 182.113281 311.363281 182.476562 310.023438 181.914062 C 309.753906 181.800781 309.558594 181.820312 309.792969 182.125 C 310.289062 182.785156 311.164062 182.957031 311.910156 183.195312 C 312.199219 183.285156 312.980469 183.421875 312.933594 183.425781 C 311.976562 183.511719 311.265625 184.46875 310.273438 184.328125 C 309.996094 184.289062 309.773438 184.308594 310.148438 184.46875 C 311.601562 185.097656 312.910156 186.144531 314.464844 186.511719 C 314.199219 187.152344 314.246094 187.710938 314.589844 188.601562 C 314.894531 189.40625 314.890625 189.460938 314.460938 190.382812 C 314.214844 190.90625 312.804688 191.765625 312.558594 191.929688 C 311.957031 192.320312 313.484375 192.371094 314.171875 193.09375 C 314.683594 193.625 314.445312 194.378906 314.257812 194.855469 C 315.371094 194.726562 314.96875 194.921875 315.921875 195.171875 C 315.019531 195.269531 314.480469 195.542969 314.652344 195.808594 C 315.222656 196.675781 316.007812 197.570312 317.269531 198.917969 C 319.460938 198.152344 320.207031 197.265625 320.722656 197.53125 C 322.082031 198.234375 322.226562 199.023438 321.285156 200.628906 C 320.722656 201.585938 320.410156 201.738281 318.203125 202.148438 C 314.90625 202.753906 312.109375 204.558594 311.097656 206.726562 C 309.941406 208.375 311.191406 211.65625 311.191406 211.65625 C 311.191406 211.65625 309.46875 209.984375 310.089844 207.613281 C 306.855469 208.753906 304.824219 206.480469 301.675781 209.953125 C 300.996094 210.980469 300.878906 210.753906 301.523438 209.65625 C 301.992188 208.855469 302.03125 208.660156 301.914062 207.5625 C 301.839844 206.894531 301.53125 205.625 301.21875 204.738281 C 300.550781 202.820312 300.164062 200.21875 300.355469 198.941406 C 300.464844 198.203125 300.542969 198.0625 300.746094 198.234375 C 301.679688 199.007812 303.179688 198.804688 304.058594 197.789062 C 304.347656 197.449219 304.824219 197.054688 305.113281 196.90625 C 306.042969 196.4375 306.410156 195.328125 306.410156 193.003906 C 306.410156 191.039062 307.445312 189.863281 306.714844 190.03125 C 305.722656 190.257812 300.914062 187.128906 300.285156 187.699219 C 298.554688 188.296875 297.4375 193.328125 295.957031 194.710938 C 295.964844 198.203125 295.425781 201.9375 294.542969 204.757812 C 293.25 208.816406 293.113281 209.480469 293.113281 211.757812 C 293.117188 214.097656 293.589844 216.257812 294.4375 217.78125 C 294.699219 218.246094 294.863281 218.773438 294.804688 218.957031 C 294.726562 219.199219 294.90625 219.386719 295.480469 219.671875 C 296.25 220.050781 296.277344 220.050781 298.027344 219.703125 C 302.789062 218.222656 304.601562 223.816406 312.445312 218.890625 C 313.671875 220.164062 310.757812 225.308594 313.070312 226.617188 C 313.070312 226.617188 317.746094 226.179688 318.871094 225.675781 C 318.265625 226.988281 313.078125 228.058594 313.078125 228.058594 C 311.101562 229.539062 314.738281 235.175781 311.808594 239.785156 C 311.792969 239.8125 311.777344 239.835938 311.777344 239.839844 C 311.777344 240.132812 316.125 237.582031 318.9375 237.878906 C 320.570312 238.054688 325.796875 239.265625 327.417969 240.820312 C 330.136719 243.425781 335.6875 241.128906 337.0625 240.46875 C 337.871094 237.195312 336.417969 230.957031 334.242188 228.488281 C 333.703125 227.890625 333.613281 227.667969 333.710938 227.175781 C 333.792969 226.753906 333.761719 226.609375 333.589844 226.664062 C 331.257812 229.085938 329.015625 230.230469 328.464844 234.570312 C 328.460938 228.726562 332.179688 227.875 333.339844 226.261719 C 335.179688 223.703125 338.429688 220.695312 340.992188 218.789062 C 341.554688 218.371094 334.054688 217.90625 334.023438 214.023438 C 334.796875 217.765625 343.328125 217.183594 343.714844 216.859375 C 345.148438 215.664062 346.585938 213.925781 347.816406 211.875 C 348.738281 210.34375 349.875 207.886719 349.730469 207.742188 C 349.019531 208.332031 347.351562 209.101562 346.972656 208.199219 C 347.683594 208.792969 349.304688 207.164062 350.175781 206.882812 C 356.246094 205.292969 359.339844 202.007812 363.273438 195.917969 C 364.253906 194.402344 366.527344 189.921875 366.703125 189.160156 C 367.285156 186.671875 362.78125 181.308594 356.84375 177.417969 C 352.289062 174.433594 349.417969 173.320312 344.761719 172.722656 C 344.378906 172.671875 343.929688 172.652344 343.40625 172.660156 Z M 343.40625 172.660156 " fill-opacity="1" fill-rule="nonzero"/></g></svg>