<svg width="122" height="46" viewBox="0 0 122 46" fill="none" xmlns="http://www.w3.org/2000/svg">
<g clip-path="url(#clip0_2_2057)">
<mask id="mask0_2_2057" style="mask-type:luminance" maskUnits="userSpaceOnUse" x="-1" y="1" width="81" height="41">
<path d="M79.5023 1.94092H-0.205078V41.0482H79.5023V1.94092Z" fill="white"/>
</mask>
<g mask="url(#mask0_2_2057)">
<mask id="mask1_2_2057" style="mask-type:luminance" maskUnits="userSpaceOnUse" x="-1" y="14" width="22" height="18">
<path d="M-0.150391 14.0181H20.2328V31.2713H-0.150391V14.0181Z" fill="white"/>
</mask>
<g mask="url(#mask1_2_2057)">
<path d="M10.366 14.2642C11.7351 14.2642 13.2347 14.399 14.8633 14.6685C16.492 14.9381 18.0062 15.3683 19.4086 15.958L18.2643 17.8855C17.4127 17.2722 16.468 16.7263 15.4328 16.2501C14.3963 15.7738 13.2999 15.4076 12.1436 15.1493C10.2276 14.7123 8.53774 14.7 7.07676 15.1133C5.61445 15.5245 4.51139 16.2433 3.76626 17.27C3.02114 18.2978 2.72442 19.5322 2.87743 20.9723C3.02646 22.2303 3.49616 23.4569 4.28785 24.652C5.08221 25.8472 6.11076 26.8514 7.37481 27.6624C8.63754 28.4711 10.044 28.9654 11.5954 29.1451C12.5109 29.2473 13.4316 29.1889 14.3577 28.9698C15.2865 28.7519 16.1633 28.361 16.987 27.7972C18.2351 26.8963 19.0267 25.7641 19.3607 24.4004H19.9994C19.6934 25.6854 19.0534 26.8357 18.078 27.8511C17.1054 28.8665 15.9185 29.6708 14.5174 30.2638C13.1189 30.8547 11.6127 31.149 9.99873 31.149C8.23171 31.149 6.58711 30.7895 5.06492 30.0706C3.57466 29.3248 2.35717 28.3038 1.41379 27.0064C0.469074 25.7068 -0.00195312 24.2735 -0.00195312 22.7066C-0.00195312 21.0621 0.461091 19.6041 1.38718 18.3304C2.31593 17.0577 3.56535 16.0614 5.13411 15.3425C6.70154 14.6236 8.44593 14.2642 10.366 14.2642Z" fill="#0D1B2A"/>
</g>
<path d="M30.4538 14.2642C32.3086 14.2642 33.9905 14.6438 35.4994 15.4009C37.0069 16.1591 38.2098 17.1745 39.1079 18.4472C40.0047 19.7209 40.4545 21.1407 40.4545 22.7066C40.4545 24.2499 40.0047 25.663 39.1079 26.948C38.2098 28.233 37.0069 29.2552 35.4994 30.0122C33.9905 30.7704 32.3086 31.149 30.4538 31.149C28.6256 31.149 26.9517 30.7704 25.4295 30.0122C23.9073 29.2552 22.6965 28.233 21.7997 26.948C20.9015 25.663 20.4531 24.2499 20.4531 22.7066C20.4531 21.1407 20.9015 19.7209 21.7997 18.4472C22.6965 17.1745 23.9073 16.1591 25.4295 15.4009C26.9517 14.6438 28.6256 14.2642 30.4538 14.2642ZM35.7495 29.3383C36.665 28.7991 37.2664 28.0162 37.5538 26.9884C37.8439 25.9584 37.8146 24.8205 37.4633 23.5737C37.1121 22.328 36.4494 21.0879 35.4781 19.8535C34.5014 18.6202 33.3891 17.6317 32.141 16.8881C30.8956 16.1422 29.6555 15.6862 28.4207 15.5177C27.1885 15.3504 26.1015 15.5357 25.1581 16.0749C24.2426 16.5904 23.6385 17.3621 23.3485 18.3888C23.0611 19.4165 23.093 20.5611 23.4443 21.8214C23.7956 23.0795 24.4569 24.3263 25.4295 25.5596C26.4048 26.7671 27.5159 27.75 28.7613 28.5071C30.0094 29.2653 31.2588 29.7224 32.5082 29.8774C33.7563 30.0302 34.8368 29.8505 35.7495 29.3383Z" fill="#0D1B2A"/>
<path d="M57.8066 17.8852C56.7382 16.6789 55.4568 15.9285 53.9639 15.6342C52.4737 15.3377 50.9222 15.4725 49.3122 16.0386C48.5804 16.2936 47.8805 16.5632 47.2099 16.8473C46.5392 17.1293 45.9139 17.3989 45.3364 17.6561V26.9072C45.3364 28.0395 45.4122 29.0302 45.5653 29.8771C45.7169 30.7252 45.7941 31.1487 45.7941 31.1487H40.9082C40.9082 31.1487 40.984 30.7252 41.1371 29.8771C41.2888 29.0302 41.3659 28.0395 41.3659 26.9072V18.5412C41.3659 17.3854 41.2888 16.3834 41.1371 15.5354C40.984 14.6884 40.9082 14.2639 40.9082 14.2639H45.3364V17.0765C45.9139 16.8193 46.6217 16.5238 47.46 16.1914C48.2969 15.8566 49.1711 15.5343 50.0839 15.2254C50.9994 14.9176 51.8895 14.6671 52.7557 14.475C53.6246 14.2841 54.3791 14.2133 55.0177 14.2639C55.6564 14.3155 56.2578 14.4571 56.822 14.6907C57.3862 14.9221 58.094 15.3444 58.9456 15.9577L57.8066 17.8852Z" fill="#0D1B2A"/>
<path d="M78.1703 24.4004H78.7611C78.4551 25.6854 77.8151 26.8357 76.8398 27.8511C75.8671 28.8665 74.6802 29.6708 73.2791 30.2638C71.8807 30.8547 70.3744 31.149 68.7604 31.149C66.9322 31.149 65.265 30.7704 63.7574 30.0122C62.2526 29.2552 61.0431 28.2397 60.1276 26.966C59.2148 25.6933 58.7598 24.2735 58.7598 22.7066C58.7598 21.1407 59.2082 19.7209 60.1063 18.4472C61.0031 17.1745 62.214 16.1591 63.7362 15.4009C65.2583 14.6438 66.9322 14.2642 68.7604 14.2642C70.0085 14.2642 71.1821 14.4439 72.2785 14.8033C73.3749 15.1628 74.3489 15.6514 75.2005 16.2681C75.899 16.7567 76.4911 17.3419 76.9781 18.0248C77.4678 18.7055 77.7419 19.43 77.8031 20.1995C77.9548 21.4339 77.6807 22.437 76.9781 23.2098C76.2783 23.9803 75.3349 24.5071 74.1467 24.7913C72.9611 25.0733 71.7277 25.1238 70.4476 24.9441C68.9574 24.7374 67.5576 24.2364 66.2483 23.4389C64.939 22.6425 63.828 21.717 62.9165 20.6622C62.6424 20.3298 62.3976 19.9905 62.182 19.6423C61.9691 19.2952 61.7882 18.9279 61.6392 18.5415C61.3624 19.5457 61.4063 20.6645 61.7722 21.8978C62.1368 23.1323 62.7914 24.3533 63.7362 25.5596C64.4068 26.4077 65.2371 27.1344 66.227 27.7388C67.217 28.3408 68.2814 28.7587 69.4204 28.9923C70.5621 29.2237 71.6984 29.2349 72.8267 29.0283C74.136 28.798 75.2923 28.2453 76.2969 27.3703C77.3001 26.4964 77.9255 25.5057 78.1703 24.4004ZM63.4647 16.0749C62.854 16.4343 62.3523 16.9487 61.9585 17.616C62.2911 18.7212 62.8234 19.667 63.5552 20.4511C64.2857 21.2362 65.1692 21.8731 66.2057 22.3606C67.5749 23.002 68.799 23.3356 69.8781 23.3625C70.9599 23.3873 71.8434 23.1817 72.5287 22.747C73.2126 22.3101 73.6623 21.7439 73.8752 21.0486C74.0881 20.3545 74.0109 19.6086 73.6464 18.8111C73.2804 18.0147 72.5659 17.27 71.5015 16.5781C70.6499 16.0119 69.7291 15.6334 68.7392 15.4413C67.7492 15.247 66.7885 15.2077 65.8598 15.3245C64.9337 15.4413 64.1353 15.6918 63.4647 16.0749Z" fill="#0D1B2A"/>
</g>
<mask id="mask2_2_2057" style="mask-type:luminance" maskUnits="userSpaceOnUse" x="67" y="-18" width="55" height="70">
<path d="M121.74 -17.6128H67.5801V51.9753H121.74V-17.6128Z" fill="white"/>
</mask>
<g mask="url(#mask2_2_2057)">
<path d="M118.015 0.00146484C118.377 0.00146484 118.624 0.0980651 118.76 0.289019C118.898 0.481096 118.877 0.673173 118.696 0.864127L99.8977 23.0013C101.895 25.341 103.903 27.6999 105.923 30.0778C107.945 32.4535 109.954 34.8292 111.953 37.2038H99.2856L93.6333 30.4777L80.6201 45.8304C80.5776 45.8663 80.4871 45.9045 80.3487 45.9427C80.213 45.982 80.0999 46.0011 80.0081 46.0011H69.1132C68.7939 46.0011 68.577 45.9056 68.4639 45.7136C68.3508 45.5226 68.3841 45.3305 68.565 45.1384L87.2305 23.0013C85.2319 20.6649 83.2347 18.3094 81.2375 15.9337C79.239 13.5558 77.2404 11.1779 75.2392 8.79882H87.9117L93.6333 15.5294L106.503 0.176693C106.548 0.0991883 106.652 0.0508882 106.811 0.0329161C106.971 0.0126973 107.072 0.00146484 107.115 0.00146484H118.015Z" fill="#D00000"/>
</g>
<mask id="mask3_2_2057" style="mask-type:luminance" maskUnits="userSpaceOnUse" x="96" y="17" width="27" height="21">
<path d="M96.918 17.3589H122.082V37.5977H96.918V17.3589Z" fill="white"/>
</mask>
<g mask="url(#mask3_2_2057)">
<path d="M114.045 17.3711C113.509 17.3767 112.748 17.4565 111.702 17.6148C111.131 17.7013 110.992 17.744 110.84 17.8721C110.668 18.0192 110.659 18.0529 110.64 18.6538C110.62 19.2694 110.623 19.2817 110.783 19.3705C110.873 19.4199 111.173 19.6277 111.449 19.8321C112.095 20.3106 112.208 20.3163 112.856 19.8995C113.138 19.7187 113.153 19.6547 112.912 19.6513C112.792 19.649 112.387 19.494 112.491 19.4895C112.514 19.4884 112.761 19.5524 113.041 19.6322C113.906 19.813 114.242 19.0492 114.928 18.7752C116.337 19.0358 115.81 20.651 116.931 22.0292C117.57 23.0368 118.114 23.166 119.563 22.656C119.651 22.6257 119.675 22.6313 119.643 22.6751C119.571 22.7728 118.583 23.0166 118.258 23.0166C117.849 23.0166 117.575 22.9054 117.303 22.6268L117.067 22.3887C115.832 22.2303 115.018 22.6953 114.66 23.1985C114.596 23.2626 113.244 24.0477 113.119 24.4274C113.05 23.4692 114.373 23.2087 114.288 23.1985C113.142 23.3749 110.298 23.2772 109.575 24.1848C108.857 23.2165 109.649 22.2337 109.779 21.8551C109.942 21.3935 109.842 20.8959 109.551 20.4949C109.512 20.3601 109.39 20.2433 109.27 20.1467C109.072 19.986 108.815 19.8804 108.635 19.7063C108.445 19.521 108.329 19.2604 108.027 19.1739C107.511 19.0268 106.96 19.1638 106.474 19.3211C106.19 19.4132 105.894 19.4772 105.585 19.494C105.325 19.5086 104.8 19.266 104.803 19.4862C104.806 19.6187 105.351 19.3963 105.2 19.4727C105.057 19.5457 104.91 19.5839 104.729 19.6052C104.416 19.6423 104.105 19.6738 103.787 19.6816C103.717 19.6839 103.603 19.6479 103.745 19.6906C103.97 19.7569 104.152 19.8703 104.389 19.9433C104.622 20.0164 104.24 20.0534 104.155 20.059C103.663 20.0894 103.131 20.1938 102.674 20.0321C102.582 19.9995 102.516 20.0051 102.596 20.0927C102.765 20.2826 103.063 20.332 103.317 20.4005C103.415 20.4263 103.681 20.4657 103.665 20.4668C103.339 20.4915 103.097 20.7667 102.759 20.7263C102.665 20.715 102.589 20.7206 102.717 20.7667C103.212 20.9475 103.657 21.2486 104.187 21.3542C104.097 21.5384 104.113 21.699 104.23 21.9551C104.333 22.1865 104.332 22.2022 104.186 22.4673C104.102 22.6178 103.622 22.8649 103.538 22.9121C103.333 23.0244 103.853 23.039 104.087 23.2468C104.262 23.3996 104.18 23.6164 104.117 23.7534C104.496 23.7164 104.359 23.7725 104.683 23.8444C104.376 23.8725 104.192 23.9511 104.251 24.0275C104.445 24.2769 104.713 24.5341 105.142 24.9216C105.889 24.7015 106.143 24.4465 106.319 24.5229C106.782 24.7251 106.831 24.9519 106.51 25.4136C106.319 25.6888 106.212 25.7326 105.46 25.8506C104.337 26.0247 103.385 26.5436 103.04 27.167C102.646 27.641 103.072 28.5846 103.072 28.5846C103.072 28.5846 102.485 28.1038 102.697 27.422C101.595 27.75 100.903 27.0962 99.8307 28.0948C99.5992 28.3902 99.5593 28.3251 99.7788 28.0095C99.9385 27.7792 99.9518 27.723 99.9119 27.4074C99.8866 27.2153 99.7815 26.8503 99.675 26.5953C99.4475 26.0438 99.3158 25.2957 99.381 24.9284C99.4182 24.7161 99.4448 24.6756 99.514 24.7251C99.832 24.9475 100.343 24.889 100.642 24.597C100.741 24.4993 100.903 24.3858 101.002 24.3431C101.318 24.2084 101.443 23.8893 101.443 23.221C101.443 22.656 101.796 22.3179 101.547 22.3662C101.209 22.4314 99.5712 21.5316 99.357 21.6956C98.7676 21.8675 98.387 23.3142 97.8827 23.7119C97.8854 24.7161 97.7018 25.7899 97.4011 26.6009C96.9606 27.768 96.9141 27.9589 96.9141 28.6138C96.9154 29.2866 97.0764 29.9078 97.3651 30.3458C97.4543 30.4795 97.5102 30.6311 97.4902 30.6839C97.4636 30.7536 97.5248 30.8075 97.7204 30.8895C97.9825 30.9984 97.9918 30.9984 98.5879 30.8985C100.21 30.4728 100.827 32.0813 103.499 30.6648C103.917 31.031 102.924 32.5103 103.712 32.8866C103.712 32.8866 105.305 32.7608 105.688 32.6159C105.482 32.9934 103.715 33.3011 103.715 33.3011C103.041 33.7268 104.28 35.3477 103.282 36.6731C103.277 36.681 103.272 36.6877 103.272 36.6889C103.272 36.7731 104.753 36.0396 105.711 36.125C106.267 36.1755 108.047 36.5237 108.599 36.9708C109.525 37.72 111.416 37.0595 111.884 36.8697C112.16 35.9284 111.665 34.1346 110.924 33.4247C110.74 33.2528 110.71 33.1888 110.743 33.0473C110.771 32.926 110.76 32.8844 110.702 32.9001C109.907 33.5965 109.143 33.9257 108.956 35.1736C108.955 33.4932 110.221 33.2483 110.616 32.7844C111.243 32.0487 112.35 31.1838 113.223 30.6356C113.415 30.5154 110.86 30.3818 110.849 29.2653C111.113 30.3413 114.019 30.174 114.15 30.0807C114.639 29.737 115.128 29.2372 115.548 28.6475C115.862 28.2071 116.249 27.5006 116.2 27.4591C115.957 27.6287 115.389 27.85 115.26 27.5905C115.502 27.7612 116.055 27.2928 116.351 27.2119C118.419 26.7548 119.473 25.8101 120.813 24.059C121.147 23.6231 121.921 22.3348 121.981 22.1157C122.179 21.4002 120.645 19.858 118.623 18.7392C117.071 17.881 116.093 17.5609 114.507 17.3891C114.377 17.3745 114.224 17.3688 114.045 17.3711Z" fill="#0D1B2A"/>
</g>
</g>
<defs>
<clipPath id="clip0_2_2057">
<rect width="122" height="46" fill="white"/>
</clipPath>
</defs>
</svg>
