<svg xmlns="http://www.w3.org/2000/svg" version="1.0" viewBox="8.6 112.25 358.16 159.97"><defs><clipPath id="b"><path d="M.16 42H60v60H.16Zm0 0"/></clipPath><clipPath id="a"><path d="M0 0h234v136H0z"/></clipPath><clipPath id="c"><path d="M0 0h159v242H0z"/></clipPath><clipPath id="d"><path d="M293.125 172.617H367V243h-73.875Zm0 0"/></clipPath></defs><g clip-path="url(#a)" transform="translate(8 119)"><g clip-path="url(#b)"><path fill="#0d1b2a" d="M31.034 42.855c4.02 0 8.422.47 13.204 1.407 4.78.937 9.226 2.433 13.343 4.484l-3.36 6.703c-2.5-2.133-5.273-4.031-8.312-5.687a43.279 43.279 0 0 0-9.656-3.828c-5.625-1.52-10.586-1.563-14.875-.125-4.293 1.43-7.531 3.93-9.719 7.5-2.187 3.574-3.058 7.867-2.609 12.875.438 4.375 1.816 8.64 4.14 12.796 2.333 4.157 5.352 7.649 9.063 10.47 3.707 2.812 7.836 4.53 12.39 5.155 2.688.356 5.391.153 8.11-.609 2.727-.758 5.301-2.117 7.719-4.078 3.664-3.133 5.988-7.07 6.969-11.813h1.875c-.899 4.47-2.778 8.47-5.64 12-2.856 3.532-6.34 6.329-10.454 8.391-4.106 2.055-8.527 3.078-13.266 3.078-5.187 0-10.015-1.25-14.484-3.75-4.375-2.594-7.95-6.144-10.719-10.656C1.98 82.648.597 77.664.597 72.215c0-5.719 1.36-10.79 4.078-15.219 2.727-4.426 6.395-7.89 11-10.39 4.602-2.5 9.723-3.75 15.36-3.75Zm0 0"/></g><path fill="#0d1b2a" d="M90.007 42.855c5.445 0 10.382 1.32 14.812 3.954 4.426 2.636 7.957 6.167 10.594 10.593 2.633 4.43 3.953 9.367 3.953 14.813 0 5.367-1.32 10.281-3.953 14.75-2.637 4.469-6.168 8.023-10.594 10.656-4.43 2.637-9.367 3.953-14.812 3.953-5.368 0-10.282-1.316-14.75-3.953-4.47-2.633-8.024-6.187-10.657-10.656-2.636-4.469-3.953-9.383-3.953-14.75 0-5.446 1.317-10.383 3.953-14.813 2.633-4.426 6.188-7.957 10.657-10.593 4.468-2.633 9.382-3.954 14.75-3.954Zm15.547 52.422c2.687-1.875 4.453-4.597 5.296-8.172.852-3.582.766-7.539-.265-11.875-1.031-4.332-2.977-8.644-5.828-12.937-2.868-4.29-6.133-7.727-9.797-10.313-3.656-2.593-7.297-4.18-10.922-4.765-3.617-.582-6.809.062-9.578 1.937-2.688 1.793-4.461 4.477-5.313 8.047-.843 3.574-.75 7.555.282 11.938 1.03 4.375 2.972 8.71 5.828 13 2.863 4.199 6.125 7.617 9.78 10.25 3.665 2.636 7.333 4.226 11 4.765 3.665.532 6.837-.093 9.517-1.875ZM170.307 55.45c-3.137-4.196-6.898-6.806-11.281-7.829-4.375-1.031-8.93-.562-13.656 1.406a91.874 91.874 0 0 0-6.172 2.813c-1.97.98-3.805 1.918-5.5 2.812v32.172c0 3.938.222 7.383.672 10.328.445 2.95.671 4.422.671 4.422h-14.343s.222-1.473.672-4.422c.445-2.945.671-6.39.671-10.328V57.73c0-4.02-.226-7.504-.671-10.453-.45-2.945-.672-4.422-.672-4.422h13v9.782a153.391 153.391 0 0 1 6.234-3.078 137.38 137.38 0 0 1 7.703-3.36c2.688-1.07 5.3-1.941 7.844-2.61 2.55-.663 4.766-.91 6.64-.734 1.876.18 3.641.672 5.297 1.485 1.657.804 3.735 2.273 6.235 4.406ZM230.092 78.105h1.734c-.898 4.47-2.777 8.47-5.64 12-2.856 3.532-6.34 6.329-10.453 8.391-4.106 2.055-8.528 3.078-13.266 3.078-5.367 0-10.262-1.316-14.688-3.953-4.418-2.633-7.968-6.164-10.656-10.594-2.68-4.426-4.015-9.363-4.015-14.812 0-5.446 1.316-10.383 3.953-14.813 2.632-4.426 6.187-7.957 10.656-10.593 4.469-2.633 9.383-3.954 14.75-3.954 3.664 0 7.11.625 10.328 1.875 3.219 1.25 6.078 2.95 8.578 5.094 2.05 1.7 3.79 3.735 5.219 6.11 1.437 2.367 2.242 4.886 2.422 7.562.445 4.293-.36 7.781-2.422 10.469-2.055 2.68-4.824 4.511-8.313 5.5-3.48.98-7.101 1.156-10.859.531-4.375-.719-8.484-2.46-12.328-5.234-3.844-2.77-7.106-5.989-9.781-9.657a32.798 32.798 0 0 1-2.157-3.546 25.44 25.44 0 0 1-1.593-3.829c-.813 3.493-.684 7.383.39 11.672 1.07 4.293 2.992 8.54 5.766 12.735a29.5 29.5 0 0 0 7.312 7.578c2.907 2.094 6.032 3.547 9.375 4.36 3.352.804 6.688.843 10 .124 3.844-.8 7.239-2.723 10.188-5.765 2.945-3.04 4.781-6.485 5.5-10.329ZM186.92 49.152c-1.793 1.25-3.266 3.04-4.422 5.36.977 3.843 2.54 7.132 4.688 9.859a25.707 25.707 0 0 0 7.78 6.64c4.02 2.231 7.614 3.391 10.782 3.485 3.176.086 5.77-.629 7.781-2.14 2.008-1.52 3.329-3.489 3.954-5.907.625-2.414.398-5.008-.672-7.781-1.075-2.77-3.172-5.36-6.297-7.766-2.5-1.968-5.203-3.285-8.11-3.953-2.906-.676-5.726-.812-8.453-.406-2.718.406-5.062 1.277-7.031 2.61Zm0 0"/></g><g clip-path="url(#c)" transform="translate(207 51)"><path fill="#d00000" d="M148.062 61.255c1.062 0 1.789.336 2.187 1 .406.668.344 1.336-.187 2l-55.188 76.984c5.863 8.137 11.758 16.34 17.688 24.61a5627.247 5627.247 0 0 1 17.703 24.781H93.077l-16.594-23.39-38.203 53.39c-.125.125-.39.258-.797.39-.398.137-.73.204-1 .204H4.5c-.937 0-1.574-.332-1.906-1-.332-.664-.235-1.332.297-2l54.797-76.985a3679.979 3679.979 0 0 1-17.594-24.578c-5.867-8.27-11.735-16.539-17.61-24.812h37.204l16.796 23.406 37.782-53.39c.132-.27.437-.438.906-.5.469-.07.766-.11.89-.11Zm0 0"/></g><g clip-path="url(#d)"><path fill="#0d1b2a" d="M343.406 172.66c-1.574.02-3.808.297-6.879.848-1.675.3-2.086.449-2.53.894-.505.512-.532.63-.587 2.72-.058 2.14-.05 2.183.418 2.491.266.172 1.145.895 1.957 1.606 1.895 1.664 2.227 1.683 4.13.234.827-.629.87-.851.163-.863-.351-.008-1.539-.547-1.234-.563.066-.004.793.22 1.613.496 2.54.63 3.527-2.027 5.54-2.98 4.136.906 2.589 6.523 5.882 11.316 1.875 3.504 3.473 3.953 7.726 2.18.258-.105.329-.086.235.066-.211.34-3.113 1.188-4.067 1.188-1.199 0-2.003-.387-2.804-1.356l-.692-.828c-3.625-.55-6.015 1.067-7.066 2.817-.188.222-4.156 2.953-4.524 4.273-.203-3.332 3.68-4.238 3.43-4.273-3.363.613-11.71.273-13.836 3.43-2.105-3.368.219-6.786.602-8.102.476-1.606.183-3.336-.672-4.73-.113-.47-.473-.876-.824-1.212-.582-.558-1.336-.925-1.864-1.53-.558-.645-.898-1.552-1.785-1.852-1.515-.512-3.133-.035-4.558.511-.836.32-1.703.543-2.61.602-.765.05-2.304-.793-2.297-.027.008.46 1.61-.313 1.164-.047-.417.254-.851.386-1.382.46-.918.13-1.832.239-2.766.266-.203.008-.539-.117-.121.032.66.23 1.195.625 1.89.878.684.254-.437.383-.687.403-1.445.105-3.008.469-4.348-.094-.27-.113-.464-.094-.23.211.496.66 1.371.832 2.117 1.07.29.09 1.07.227 1.024.23-.957.087-1.668 1.044-2.66.903-.278-.039-.5-.02-.126.14 1.454.63 2.762 1.677 4.317 2.044-.266.64-.219 1.199.125 2.09.305.804.3.859-.13 1.78-.245.524-1.655 1.384-1.901 1.548-.602.39.925.441 1.613 1.164.512.531.273 1.285.086 1.761 1.113-.128.71.067 1.664.317-.902.098-1.442.371-1.27.637.57.867 1.356 1.761 2.618 3.109 2.19-.766 2.937-1.652 3.453-1.387 1.359.703 1.504 1.492.562 3.098-.562.957-.875 1.11-3.082 1.52-3.297.605-6.094 2.41-7.105 4.578-1.157 1.648.093 4.93.093 4.93s-1.722-1.673-1.101-4.044c-3.235 1.14-5.266-1.133-8.414 2.34-.68 1.027-.797.8-.153-.297.47-.8.508-.996.391-2.094-.074-.667-.383-1.937-.695-2.824-.668-1.918-1.055-4.52-.864-5.797.11-.738.188-.879.391-.707.934.774 2.434.57 3.313-.445.289-.34.765-.734 1.054-.883.93-.469 1.297-1.578 1.297-3.902 0-1.965 1.035-3.14.305-2.973-.992.227-5.8-2.902-6.43-2.332-1.73.598-2.848 5.63-4.328 7.012.008 3.492-.531 7.226-1.414 10.047-1.293 4.058-1.43 4.722-1.43 7 .004 2.34.477 4.5 1.325 6.023.261.465.425.992.367 1.176-.078.242.101.43.675.715.77.379.797.379 2.547.031 4.762-1.48 6.575 4.113 14.418-.812 1.227 1.273-1.687 6.418.625 7.726 0 0 4.676-.437 5.801-.941-.605 1.312-5.793 2.383-5.793 2.383-1.976 1.48 1.66 7.117-1.27 11.726-.015.028-.03.05-.03.055 0 .293 4.347-2.258 7.16-1.961 1.632.176 6.859 1.387 8.48 2.941 2.719 2.606 8.27.309 9.644-.351.81-3.274-.644-9.512-2.82-11.98-.539-.598-.629-.821-.531-1.313.082-.422.05-.567-.121-.512-2.332 2.422-4.574 3.566-5.125 7.906-.004-5.843 3.715-6.695 4.875-8.308 1.84-2.559 5.09-5.567 7.652-7.473.563-.418-6.937-.883-6.969-4.766.774 3.743 9.305 3.16 9.692 2.836 1.433-1.195 2.87-2.933 4.101-4.984.922-1.531 2.059-3.988 1.914-4.133-.71.59-2.378 1.36-2.757.457.71.594 2.332-1.035 3.203-1.316 6.07-1.59 9.164-4.875 13.097-10.965.98-1.516 3.254-5.996 3.43-6.758.582-2.488-3.922-7.851-9.86-11.742-4.554-2.984-7.425-4.098-12.081-4.695a9.398 9.398 0 0 0-1.356-.063Zm0 0"/></g></svg>